<?xml version="1.0" encoding="utf-8"?>
<svg width="110px" height="28px" viewBox="0 0 110 28" version="1.1" xmlns:xlink="http://www.w3.org/1999/xlink" xmlns="http://www.w3.org/2000/svg">
<!-- #94fc13 -->
  <g id="ebuka" fill="#39ff14">
    <path d="M74.8242 9.49707Q76.4551 11.1189 78.1543 12.8191L78.1641 12.8288Q79.3066 13.9719 79.3066 15.5937Q79.3066 17.2157 78.1641 18.3588Q77.0313 19.502 75.4199 19.502Q73.8184 19.502 72.6855 18.3594Q70.6641 16.3574 69.8633 15.5566Q69.8633 17.2168 68.7109 18.3691C67.9557 19.1243 67.0443 19.502 65.9766 19.502Q64.375 19.502 63.2324 18.3588Q62.0996 17.2157 62.0996 15.5937L62.0996 3.40027Q62.0996 1.77841 63.2324 0.635376Q64.375 -0.507811 65.9766 -0.507813Q67.5684 -0.507813 68.7012 0.615234Q69.8633 1.76758 69.8633 3.44727L72.6855 0.634766Q73.8184 -0.507811 75.4199 -0.507813Q77.0313 -0.507813 78.1641 0.635376Q79.3066 1.77841 79.3066 3.40027Q79.3066 5.02228 78.1641 6.16531L78.1543 6.17508L77.832 6.4975Q77.4414 6.88843 77.0898 7.24014Q75.8789 8.44193 74.8242 9.49707ZM101.113 13.9551Q100.879 13.3984 95.0781 1.72852L95.0684 1.69922Q94.5605 0.683596 93.5938 0.0878906Q92.6367 -0.507813 91.4844 -0.507813Q90.3418 -0.507811 89.3848 0.0878906Q88.4277 0.683596 87.9199 1.69922L87.9102 1.72852Q82.0996 13.418 81.8652 13.9551Q81.2598 15.4102 81.8066 16.8945Q82.3633 18.3691 83.7695 19.0723Q85.127 19.7559 86.5918 19.3555Q88.0566 18.9648 88.8867 17.6855Q89.8047 16.2793 91.4941 16.2793Q93.1738 16.2793 94.1016 17.6855Q95.2832 19.4922 97.4414 19.4922Q99.5801 19.4922 100.762 17.7051Q101.943 15.918 101.113 13.9551ZM14.6875 11.6406Q16.2988 11.6406 17.4414 12.793Q18.584 13.9355 18.584 15.5566Q18.584 17.207 17.4121 18.3691Q16.2598 19.502 14.6875 19.502L4.87305 19.502Q3.27148 19.502 2.12891 18.3691Q0.976563 17.2266 0.976563 15.6348L0.976563 3.26172Q1.02539 1.63086 2.2168 0.537109Q3.35938 -0.498047 4.87305 -0.498047L14.6875 -0.498047Q16.2598 -0.498047 17.4121 0.634766Q18.584 1.79688 18.584 3.44727Q18.584 5.06836 17.4414 6.21094Q16.2988 7.36328 14.6875 7.36328L14.0918 7.36328Q14.7363 8.33008 14.7363 9.49219Q14.7363 10.6738 14.082 11.6406L14.6875 11.6406ZM35.9766 4.30664Q35.9766 6.34766 34.502 7.76367Q36.2109 8.4668 37.2656 10.0684Q38.3203 11.6699 38.3203 13.5254Q38.3203 15.9961 36.582 17.7539Q34.834 19.502 32.3828 19.502L24.5117 19.502Q22.8711 19.502 21.6992 18.3301Q20.5371 17.1582 20.5371 15.5078L20.5371 3.50586Q20.5371 1.84571 21.6992 0.673828Q22.8711 -0.498047 24.5117 -0.498047L29.7754 -0.498047Q31.582 -0.498047 32.0801 -0.400391Q33.7598 -0.0878906 34.8633 1.23047Q35.9766 2.56836 35.9766 4.30664ZM56.25 -0.498047Q54.6191 -0.498047 53.4668 0.683594Q52.334 1.84571 52.334 3.41797L52.334 9.50195Q52.334 10.3906 51.709 11.0156Q51.084 11.6406 50.2051 11.6406Q49.3262 11.6406 48.7109 11.0156Q48.0859 10.3906 48.0859 9.50195L48.0859 3.41797Q48.0859 1.84571 46.9531 0.693359Q45.8008 -0.498047 44.1699 -0.498047Q42.5586 -0.498047 41.416 0.654297Q40.2734 1.79688 40.2734 3.41797L40.2734 9.50195Q40.2734 13.6328 43.1836 16.5723Q46.1035 19.502 50.2051 19.502Q54.3164 19.502 57.2266 16.5723Q60.1465 13.6328 60.1465 9.50195L60.1465 3.41797Q60.1465 1.79688 59.0039 0.654297Q57.8613 -0.498047 56.25 -0.498047ZM78.4668 15.9195Q78.4668 15.8902 78.4766 15.7828Q78.4863 15.6656 78.4863 15.6267Q78.4863 15.5974 78.4766 15.49L78.4766 15.3339Q78.4668 15.2948 78.457 15.1971Q78.4473 15.0995 78.4375 15.0508Q78.4277 15.002 78.4082 14.9141Q78.3887 14.8164 78.3691 14.7678Q78.3594 14.7189 78.3301 14.631Q78.3008 14.5334 78.2813 14.4847Q78.2617 14.4359 78.2227 14.3578Q78.1934 14.2699 78.1641 14.2114Q78.1348 14.1626 78.0957 14.0845L78.0176 13.9478Q77.9785 13.8991 77.9395 13.8307Q77.8906 13.7624 77.8418 13.7038Q77.8027 13.6549 77.7539 13.5965Q77.7441 13.5867 77.7246 13.5574L77.6367 13.4695Q77.5748 13.4008 77.5759 13.3998L77.5848 13.4079Q75.6817 11.5156 73.6621 9.49707L73.8477 9.31168L74.043 9.11636Q75.2148 7.9451 76.5137 6.64703Q76.9238 6.2468 77.2949 5.87601L77.5879 5.58319Q78.4863 4.68521 78.4863 3.40652Q78.4863 2.12799 77.5873 1.23001Q76.6884 0.322266 75.4179 0.322266Q74.1574 0.322266 73.2585 1.23001L70.5809 3.89465Q68.2651 6.18835 67.9427 6.46164Q66.7896 7.45712 64.9916 7.24243Q63.0568 7.02774 62.9199 5.39764L62.9199 13.5965Q63.174 12.6204 64.1512 12.1227Q65.0502 11.6638 66.1446 11.781Q67.2684 11.9566 67.9427 12.5325Q68.4605 13.0109 73.2585 17.7641Q73.6592 18.1644 74.1771 18.3986Q74.7829 18.6719 75.4181 18.6719Q76.19 18.6719 76.8741 18.3009Q77.2748 18.0862 77.5874 17.7641Q77.6949 17.6569 77.7927 17.5397L77.7859 17.5489L77.861 17.4518Q77.9489 17.3347 77.9782 17.2957Q77.9758 17.2969 77.9749 17.2962Q77.9683 17.2911 78.037 17.1883Q78.1053 17.0712 78.1248 17.0322L78.1834 16.915Q78.2422 16.7979 78.252 16.7686Q78.252 16.7589 78.3008 16.6417Q78.3398 16.5245 78.3496 16.4856Q78.3594 16.4661 78.3887 16.3586Q78.418 16.2415 78.418 16.2025Q78.4277 16.183 78.4473 16.0658Q78.4668 15.9486 78.4668 15.9195ZM30.4492 18.6719Q29.6387 18.6719 28.7109 17.998Q27.5098 17.1094 27.5098 15.6738Q27.5098 9.51172 27.4902 3.41797Q27.4902 2.14844 26.6016 1.25Q25.7227 0.351564 24.4629 0.332031Q23.1738 0.351563 22.2656 1.26953Q21.3574 2.19727 21.3574 3.50586L21.3574 15.5078Q21.3574 16.8164 22.2852 17.7441Q23.2031 18.6719 24.5117 18.6719L30.4492 18.6719ZM43.7598 15.9863Q41.0938 13.3008 41.0938 9.50195L41.0938 3.41797Q41.0938 2.13867 41.9922 1.23047Q42.9004 0.332031 44.1699 0.332031Q45.4395 0.332031 46.3574 1.21094Q47.2656 2.09961 47.2656 3.31055L47.2656 14.1113Q47.2656 16.2598 48.3594 17.5488Q49.1992 18.5352 50.2051 18.6719Q46.4355 18.6719 43.7598 15.9863ZM98.8379 18.3203Q97.9785 18.75 97.0215 18.623Q96.0938 18.4961 95.3906 17.8906Q95.1074 17.6465 94.8047 17.2168Q94.375 16.6113 94.1504 16.3379Q91.6016 13.3496 88.125 12.4707Q86.5039 12.0703 85.1855 12.334Q83.7891 12.6074 82.9785 13.584Q85.4395 8.54492 85.7324 7.96875Q86.5723 6.34766 88.5938 6.25977Q89.2383 6.24023 90.1465 6.36719Q91.2988 6.54297 91.3281 6.54297Q92.9102 6.65039 93.916 5.60547Q94.9316 4.56055 94.7754 3.00781Q100.137 13.7988 100.342 14.2871Q100.82 15.4297 100.391 16.5918Q99.9609 17.7637 98.8379 18.3203ZM7.12891 12.4902L10.9668 12.4902Q12.1875 12.4902 13.0469 11.6113Q13.916 10.7324 13.916 9.49219Q13.916 8.25195 13.0469 7.38281Q12.1875 6.50391 10.9668 6.50391Q10.8691 6.50391 7.12891 6.51367Q6.09375 6.55274 4.95117 6.28906Q2.66602 5.75195 2.10938 4.20898Q1.80004 3.36285 1.79585 3.36436Q1.79554 3.36447 1.79688 3.36914L1.79688 15.6348Q1.89453 15.0488 2.26563 14.4336Q3.05664 13.1445 5.17578 12.6855Q6.23047 12.4609 7.12891 12.4902Z" />
  </g>
</svg>